<svg width="64" height="64" viewBox="0 0 64 64" fill="none" xmlns="http://www.w3.org/2000/svg">
<path d="M58 32H6C4.4087 32 2.88258 32.6321 1.75736 33.7574C0.632141 34.8826 0 36.4087 0 38C0 39.5913 0.632141 41.1174 1.75736 42.2426C2.88258 43.3679 4.4087 44 6 44H58C59.5913 44 61.1174 43.3679 62.2426 42.2426C63.3679 41.1174 64 39.5913 64 38C64 36.4087 63.3679 34.8826 62.2426 33.7574C61.1174 32.6321 59.5913 32 58 32ZM60 48H4C3.46957 48 2.96086 48.2107 2.58579 48.5858C2.21071 48.9609 2 49.4696 2 50V52C2 54.1217 2.84285 56.1566 4.34315 57.6569C5.84344 59.1571 7.87827 60 10 60H54C56.1217 60 58.1566 59.1571 59.6569 57.6569C61.1571 56.1566 62 54.1217 62 52V50C62 49.4696 61.7893 48.9609 61.4142 48.5858C61.0391 48.2107 60.5304 48 60 48ZM7.33 28H56.67C60.9912 28 63.4975 22.5125 61.0225 18.515C56 10.4 44.9437 4.0125 32 4C19.0575 4.0125 8 10.4 2.9775 18.5138C0.5 22.5112 3.00875 28 7.33 28ZM48 14C48.3956 14 48.7822 14.1173 49.1111 14.3371C49.44 14.5568 49.6964 14.8692 49.8478 15.2346C49.9991 15.6001 50.0387 16.0022 49.9616 16.3902C49.8844 16.7781 49.6939 17.1345 49.4142 17.4142C49.1345 17.6939 48.7781 17.8844 48.3902 17.9616C48.0022 18.0387 47.6001 17.9991 47.2346 17.8478C46.8692 17.6964 46.5568 17.44 46.3371 17.1111C46.1173 16.7822 46 16.3956 46 16C46 15.4696 46.2107 14.9609 46.5858 14.5858C46.9609 14.2107 47.4696 14 48 14ZM32 10C32.3956 10 32.7822 10.1173 33.1111 10.3371C33.44 10.5568 33.6964 10.8692 33.8478 11.2346C33.9991 11.6001 34.0387 12.0022 33.9616 12.3902C33.8844 12.7781 33.6939 13.1345 33.4142 13.4142C33.1345 13.6939 32.7781 13.8844 32.3902 13.9616C32.0022 14.0387 31.6001 13.9991 31.2346 13.8478C30.8692 13.6964 30.5568 13.44 30.3371 13.1111C30.1173 12.7822 30 12.3956 30 12C30 11.4696 30.2107 10.9609 30.5858 10.5858C30.9609 10.2107 31.4696 10 32 10ZM16 14C16.3956 14 16.7822 14.1173 17.1111 14.3371C17.44 14.5568 17.6964 14.8692 17.8478 15.2346C17.9991 15.6001 18.0387 16.0022 17.9616 16.3902C17.8844 16.7781 17.6939 17.1345 17.4142 17.4142C17.1345 17.6939 16.7781 17.8844 16.3902 17.9616C16.0022 18.0387 15.6001 17.9991 15.2346 17.8478C14.8692 17.6964 14.5568 17.44 14.3371 17.1111C14.1173 16.7822 14 16.3956 14 16C14 15.4696 14.2107 14.9609 14.5858 14.5858C14.9609 14.2107 15.4696 14 16 14Z" fill="white"/>
</svg>
